<svg xmlns="http://www.w3.org/2000/svg" version="1.1" xmlns:xlink="http://www.w3.org/1999/xlink" xmlns:svgjs="http://svgjs.dev/svgjs" width="1024" height="1024" viewBox="0 0 1000 1000"><rect width="1000" height="1000" fill="#ffffff"></rect><g transform="matrix(0.7,0,0,0.7,150.1712773311748,413.5390266849139)"><svg viewBox="0 0 223 55" data-background-color="#ffffff" preserveAspectRatio="xMidYMid meet" height="246" width="1000" xmlns="http://www.w3.org/2000/svg" xmlns:xlink="http://www.w3.org/1999/xlink"><g id="tight-bounds" transform="matrix(1,0,0,1,-0.05456406407424197,0.11539738147391176)"><svg viewBox="0 0 223.10912812814848 54.76930000000001" height="54.76930000000001" width="223.10912812814848"><g><svg viewBox="0 0 223.10912812814848 54.76930000000001" height="54.76930000000001" width="223.10912812814848"><g><svg viewBox="0 0 223.10912812814848 54.76930000000001" height="54.76930000000001" width="223.10912812814848"><g id="textblocktransform"><svg viewBox="0 0 223.10912812814848 54.76930000000001" height="54.76930000000001" width="223.10912812814848" id="textblock"><g><svg viewBox="0 0 223.10912812814848 54.76930000000001" height="54.76930000000001" width="223.10912812814848"><g><svg><g></g><g></g></svg></g><g><svg><g></g><g><svg></svg></g></svg></g><g id="text-0"><svg viewBox="0 0 223.10912812814848 54.76930000000001" height="54.76930000000001" width="223.10912812814848"><g><svg xmlns="http://www.w3.org/2000/svg" xmlns:xlink="http://www.w3.org/1999/xlink" version="1.0" x="0" y="0" viewBox="4.667731951646829 4.685959745359883 90.30503348557724 90.30465734357294" enable-background="new 0 0 100 100" xml:space="preserve" height="54.76930000000001" width="54.76952812814845" class="icon-z$-0" data-fill-palette-color="accent" id="z$-0"><path d="M17.504 35.743c-1.334 8.611 0.522 17.134 5.093 23.382 3.514 4.801 8.413 7.905 13.796 8.739 5.677 0.88 11.253-0.429 15.703-3.685 1.248-0.912 2.36-1.946 3.326-3.076-2.222 0.978-4.814 1.267-7.626 0.831-11.717-1.816-19.673-13.464-17.735-25.964 0.934-6.03 4.384-11.497 9.713-15.397 6.768-4.952 15.953-6.97 25.201-5.537 7.474 1.158 17.67 5.964 25.56 15.213 0 0-22.835-39.421-56.115-20.356C23.689 16.04 18.653 28.323 17.504 35.743z" fill="#89939e" data-fill-palette-color="accent"></path><path d="M82.544 65.256c1.659-8.555 0.125-17.141-4.207-23.557-3.331-4.931-8.109-8.217-13.457-9.253-5.639-1.094-11.261 0.004-15.83 3.091-1.282 0.863-2.431 1.854-3.44 2.947 2.257-0.894 4.859-1.084 7.652-0.543 11.64 2.257 19.151 14.196 16.744 26.616-1.161 5.989-4.815 11.324-10.288 15.019-6.949 4.692-16.205 6.364-25.393 4.582C26.902 82.719 16.894 77.532 9.358 67.992c0 0 21.331 40.255 55.307 22.457C75.621 84.712 81.115 72.628 82.544 65.256z" fill="#89939e" data-fill-palette-color="accent"></path><path d="M35.726 82.88c8.611 1.334 17.133-0.522 23.381-5.094 4.801-3.514 7.905-8.413 8.74-13.796 0.879-5.676-0.429-11.253-3.686-15.702-0.912-1.248-1.946-2.36-3.076-3.327 0.979 2.222 1.267 4.815 0.831 7.626-1.816 11.717-13.463 19.673-25.965 17.736-6.029-0.934-11.497-4.385-15.395-9.713-4.952-6.768-6.971-15.954-5.538-25.202 1.158-7.474 5.964-17.67 15.213-25.559 0 0-39.421 22.835-20.356 56.115C16.022 76.695 28.305 81.73 35.726 82.88z" fill="#89939e" data-fill-palette-color="accent"></path><path d="M90.432 35.718c-5.738-10.955-17.822-16.45-25.194-17.879-8.554-1.659-17.141-0.125-23.557 4.208-4.931 3.331-8.217 8.108-9.254 13.456-1.094 5.64 0.004 11.261 3.092 15.83 0.863 1.282 1.854 2.431 2.946 3.441-0.894-2.257-1.084-4.859-0.542-7.652 2.257-11.64 14.196-19.151 26.615-16.744 5.99 1.161 11.324 4.816 15.019 10.289 4.693 6.949 6.363 16.204 4.583 25.392-1.44 7.423-6.626 17.431-16.167 24.966C67.973 91.025 108.228 69.694 90.432 35.718z" fill="#89939e" data-fill-palette-color="accent"></path></svg></g><g transform="matrix(1,0,0,1,67.70022812814845,3.552713678800501e-15)"><svg width="155.40890000000002" viewBox="0 -33.85 96.05 33.85" height="54.7693" data-palette-color="#89939e"><path d="M9.1 0L0 0 10.5-17.75 1-33.85 10-33.85 14.75-25.3Q14.95-24.95 15.23-24.38 15.5-23.8 15.85-23.2L15.85-23.2Q16.2-23.75 16.48-24.3 16.75-24.85 17-25.25L17-25.25 21.8-33.85 30.8-33.85 21.25-17.7 31.75 0 22.65 0 17.05-10Q16.8-10.4 16.5-10.98 16.2-11.55 15.85-12.15L15.85-12.15 14.7-10 9.1 0ZM32.2 0L45.05-33.85 52.4-33.85 64.8 0 56.45 0 53.95-8.15 43-8.15 40.4 0 32.2 0ZM44.9-14.25L52.1-14.25Q51.6-15.7 51.07-17.28 50.55-18.85 50.07-20.35 49.6-21.85 49.2-23.18 48.8-24.5 48.5-25.4L48.5-25.4Q48.2-24.45 47.8-23.13 47.4-21.8 46.92-20.3 46.45-18.8 45.92-17.25 45.4-15.7 44.9-14.25L44.9-14.25ZM87.95-20.9L87.8-33.85 96.05-33.85 96.05 0 89 0 79.35-14.6Q79.05-15.05 78.52-15.9 78-16.75 77.42-17.68 76.85-18.6 76.32-19.48 75.8-20.35 75.45-20.9L75.45-20.9Q75.5-20.15 75.57-19.07 75.65-18 75.72-16.9 75.8-15.8 75.85-14.75 75.9-13.7 75.9-13L75.9-13 76.05 0 67.8 0 67.8-33.85 74.55-33.85 84.3-19.35Q84.75-18.65 85.3-17.78 85.85-16.9 86.42-16 87-15.1 87.5-14.28 88-13.45 88.35-12.85L88.35-12.85Q88.3-13.65 88.25-14.7 88.2-15.75 88.12-16.88 88.05-18 88-19.05 87.95-20.1 87.95-20.9L87.95-20.9Z" opacity="1" transform="matrix(1,0,0,1,0,0)" fill="#89939e" class="wordmark-text-0" data-fill-palette-color="primary"></path></svg></g></svg></g></svg></g></svg></g></svg></g></svg></g><defs></defs></svg><rect width="223.10912812814848" height="54.76930000000001" fill="none" stroke="none" visibility="hidden"></rect></g></svg></g></svg>