<?xml version="1.0" standalone="no"?>
<!DOCTYPE svg PUBLIC "-//W3C//DTD SVG 20010904//EN"
 "http://www.w3.org/TR/2001/REC-SVG-20010904/DTD/svg10.dtd">
<svg version="1.0" xmlns="http://www.w3.org/2000/svg"
 width="500.000000pt" height="500.000000pt" viewBox="0 0 500.000000 500.000000"
 preserveAspectRatio="xMidYMid meet">

<g transform="translate(0.000000,500.000000) scale(0.100000,-0.100000)"
fill="#000000" stroke="none">
<path d="M1151 2919 c-106 -21 -194 -90 -240 -188 -22 -48 -26 -69 -26 -151 0
-86 3 -99 28 -143 57 -97 167 -133 263 -86 l48 23 -56 11 c-108 21 -172 100
-172 210 0 231 315 324 512 151 57 -50 22 1 -42 62 -94 89 -214 131 -315 111z"/>
<path d="M1855 2913 c3 -10 56 -102 117 -205 l110 -187 -131 -222 c-72 -122
-131 -223 -131 -225 0 -3 51 -3 112 -2 l113 3 85 153 c58 106 87 150 93 140 4
-7 44 -77 88 -155 l80 -143 109 0 c61 0 110 2 110 6 0 3 -59 104 -130 224
l-131 220 121 202 120 203 -102 3 c-56 1 -107 1 -113 -2 -7 -2 -44 -63 -84
-135 -40 -72 -74 -131 -76 -131 -1 0 -36 61 -76 135 l-74 135 -109 0 c-99 0
-108 -1 -101 -17z"/>
<path d="M2945 2898 c-11 -27 -199 -521 -291 -766 l-23 -63 101 3 101 3 35
103 34 103 140 -3 141 -3 31 -102 30 -103 104 0 c79 0 103 3 99 13 -2 6 -73
200 -157 430 l-153 417 -89 0 -89 0 -14 -32z m185 -460 c0 -5 -41 -8 -91 -8
-78 0 -90 2 -85 15 3 9 22 68 42 133 20 64 39 121 42 126 5 8 91 -244 92 -266z"/>
<path d="M3530 2500 l0 -431 103 3 102 3 -3 205 c-1 113 -5 232 -8 265 l-5 60
32 -50 c18 -27 97 -148 176 -267 l142 -218 86 0 85 0 0 430 0 430 -101 0 -102
0 5 -266 5 -266 -20 34 c-11 18 -90 138 -175 266 l-155 232 -84 0 -83 0 0
-430z"/>
<path d="M887 2787 c-83 -84 -119 -157 -125 -250 -6 -103 22 -174 97 -248 71
-69 142 -99 238 -99 89 0 137 16 190 64 34 31 48 53 58 92 15 60 5 125 -25
164 l-20 25 0 -38 c0 -54 -21 -97 -68 -139 -126 -113 -323 -43 -372 132 -27
96 -1 219 64 310 20 28 34 50 31 50 -3 0 -34 -28 -68 -63z"/>
<path d="M1188 2797 c-59 -17 -108 -50 -139 -95 -32 -48 -35 -162 -4 -207 l20
-30 5 45 c8 58 32 103 72 133 176 130 403 -32 374 -267 -8 -62 -44 -143 -89
-200 l-32 -41 42 33 c62 48 112 109 142 172 37 79 37 191 -2 271 -68 142 -245
226 -389 186z"/>
<path d="M1226 2655 c-51 -18 -68 -35 -35 -35 13 0 42 -9 64 -19 136 -63 168
-239 62 -349 -59 -62 -100 -77 -212 -77 -90 0 -105 3 -152 27 -29 16 -69 43
-89 60 -31 27 -35 29 -25 10 25 -46 121 -131 185 -162 220 -109 470 57 470
310 -1 125 -60 214 -160 239 -53 14 -60 13 -108 -4z"/>
</g>
</svg>
