<?xml version="1.0" encoding="UTF-8" standalone="no"?>
<svg
   version="1.1"
   width="128"
   height="128"
   viewBox="0 0 1000 1000"
   id="svg17"
   sodipodi:docname="logo-color.svg"
   inkscape:export-filename="..\..\..\Documents\GitHub\XanEngine\XanStudioAssets\systemsvgglobal\source256.svg"
   inkscape:export-xdpi="24.576"
   inkscape:export-ydpi="24.576"
   xmlns:inkscape="http://www.inkscape.org/namespaces/inkscape"
   xmlns:sodipodi="http://sodipodi.sourceforge.net/DTD/sodipodi-0.dtd"
   xmlns="http://www.w3.org/2000/svg"
   xmlns:svg="http://www.w3.org/2000/svg">
  <defs
     id="defs17" />
  <sodipodi:namedview
     id="namedview17"
     pagecolor="#ffffff"
     bordercolor="#000000"
     borderopacity="0.25"
     inkscape:showpageshadow="2"
     inkscape:pageopacity="0.0"
     inkscape:pagecheckerboard="0"
     inkscape:deskcolor="#d1d1d1" />
  <g
     transform="matrix(4.0627437,0,0,3.9092309,0.22167979,23.906125)"
     id="g16">
    <svg
       viewBox="0 0 223 55"
       data-background-color="#ffffff"
       preserveAspectRatio="xMidYMid"
       height="246"
       width="1000"
       version="1.1"
       id="svg16">
      <g
         id="tight-bounds"
         transform="translate(-0.05456406,0.11539738)">
        <svg
           viewBox="0 0 223.10913 54.7693"
           height="54.769299"
           width="223.10913"
           version="1.1"
           id="svg15">
          <g
             id="g14">
            <svg
               viewBox="0 0 223.10913 54.7693"
               height="54.769299"
               width="223.10913"
               version="1.1"
               id="svg14">
              <g
                 id="g13">
                <svg
                   viewBox="0 0 223.10913 54.7693"
                   height="54.769299"
                   width="223.10913"
                   version="1.1"
                   id="svg13">
                  <g
                     id="textblocktransform">
                    <svg
                       viewBox="0 0 223.10913 54.7693"
                       height="54.769299"
                       width="223.10913"
                       id="textblock"
                       version="1.1">
                      <g
                         id="g12">
                        <svg
                           viewBox="0 0 223.10913 54.7693"
                           height="54.769299"
                           width="223.10913"
                           version="1.1"
                           id="svg12">
                          <g
                             id="g3">
                            <svg
                               version="1.1"
                               id="svg2"
                               width="100%"
                               height="100%">
                              <g
                                 id="g1"
                                 style="display:inline" />
                              <g
                                 id="g2"
                                 style="display:inline" />
                            </svg>
                          </g>
                          <g
                             id="g6">
                            <svg
                               version="1.1"
                               id="svg5"
                               width="100%"
                               height="100%">
                              <g
                                 id="g4" />
                              <g
                                 id="g5">
                                <svg
                                   version="1.1"
                                   id="svg4"
                                   width="100%"
                                   height="100%"
                                   style="display:inline" />
                              </g>
                            </svg>
                          </g>
                          <g
                             id="text-0">
                            <svg
                               viewBox="0 0 223.10913 54.7693"
                               height="54.769299"
                               width="223.10913"
                               version="1.1"
                               id="svg11"
                               style="display:inline">
                              <g
                                 id="g9">
                                <svg
                                   version="1.0"
                                   x="0"
                                   y="0"
                                   viewBox="4.667732 4.6859597 90.305033 90.304657"
                                   enable-background="new 0 0 100 100"
                                   xml:space="preserve"
                                   height="54.769299"
                                   width="54.769527"
                                   class="icon-z$-0"
                                   data-fill-palette-color="accent"
                                   id="z$-0"
                                   style="display:inline"><path
                                   d="m 17.504,35.743 c -1.334,8.611 0.522,17.134 5.093,23.382 3.514,4.801 8.413,7.905 13.796,8.739 5.677,0.88 11.253,-0.429 15.703,-3.685 1.248,-0.912 2.36,-1.946 3.326,-3.076 C 53.2,62.081 50.608,62.37 47.796,61.934 36.079,60.118 28.123,48.47 30.061,35.97 c 0.934,-6.03 4.384,-11.497 9.713,-15.397 6.768,-4.952 15.953,-6.97 25.201,-5.537 7.474,1.158 17.67,5.964 25.56,15.213 0,0 -22.835,-39.421 -56.115,-20.356 -10.731,6.147 -15.767,18.43 -16.916,25.85 z"
                                   fill="#89939e"
                                   data-fill-palette-color="accent"
                                   id="path6" /><path
                                   d="M 82.544,65.256 C 84.203,56.701 82.669,48.115 78.337,41.699 75.006,36.768 70.228,33.482 64.88,32.446 59.241,31.352 53.619,32.45 49.05,35.537 47.768,36.4 46.619,37.391 45.61,38.484 47.867,37.59 50.469,37.4 53.262,37.941 64.902,40.198 72.413,52.137 70.006,64.557 68.845,70.546 65.191,75.881 59.718,79.576 52.769,84.268 43.513,85.94 34.325,84.158 26.902,82.719 16.894,77.532 9.358,67.992 c 0,0 21.331,40.255 55.307,22.457 10.956,-5.737 16.45,-17.821 17.879,-25.193 z"
                                   fill="#89939e"
                                   data-fill-palette-color="accent"
                                   id="path7" /><path
                                   d="m 35.726,82.88 c 8.611,1.334 17.133,-0.522 23.381,-5.094 4.801,-3.514 7.905,-8.413 8.74,-13.796 0.879,-5.676 -0.429,-11.253 -3.686,-15.702 -0.912,-1.248 -1.946,-2.36 -3.076,-3.327 0.979,2.222 1.267,4.815 0.831,7.626 C 60.1,64.304 48.453,72.26 35.951,70.323 29.922,69.389 24.454,65.938 20.556,60.61 15.604,53.842 13.585,44.656 15.018,35.408 c 1.158,-7.474 5.964,-17.67 15.213,-25.559 0,0 -39.421,22.835 -20.356,56.115 6.147,10.731 18.43,15.766 25.851,16.916 z"
                                   fill="#89939e"
                                   data-fill-palette-color="accent"
                                   id="path8" /><path
                                   d="M 90.432,35.718 C 84.694,24.763 72.61,19.268 65.238,17.839 56.684,16.18 48.097,17.714 41.681,22.047 c -4.931,3.331 -8.217,8.108 -9.254,13.456 -1.094,5.64 0.004,11.261 3.092,15.83 0.863,1.282 1.854,2.431 2.946,3.441 -0.894,-2.257 -1.084,-4.859 -0.542,-7.652 2.257,-11.64 14.196,-19.151 26.615,-16.744 5.99,1.161 11.324,4.816 15.019,10.289 4.693,6.949 6.363,16.204 4.583,25.392 -1.44,7.423 -6.626,17.431 -16.167,24.966 0,0 40.255,-21.331 22.459,-55.307 z"
                                   fill="#89939e"
                                   data-fill-palette-color="accent"
                                   id="path9" /></svg>
                              </g>
                              <g
                                 transform="translate(67.700228)"
                                 id="g10">
                                <svg
                                   width="155.40891"
                                   viewBox="0 -33.85 96.05 33.85"
                                   height="54.769299"
                                   data-palette-color="#89939e"
                                   version="1.1"
                                   id="svg10">
                                <path
                                   d="M 9.1,0 H 0 L 10.5,-17.75 1,-33.85 h 9 l 4.75,8.55 q 0.2,0.35 0.48,0.92 0.27,0.58 0.62,1.18 v 0 q 0.35,-0.55 0.63,-1.1 0.27,-0.55 0.52,-0.95 v 0 l 4.8,-8.6 h 9 L 21.25,-17.7 31.75,0 h -9.1 l -5.6,-10 q -0.25,-0.4 -0.55,-0.98 -0.3,-0.57 -0.65,-1.17 v 0 L 14.7,-10 Z M 32.2,0 45.05,-33.85 H 52.4 L 64.8,0 h -8.35 l -2.5,-8.15 H 43 L 40.4,0 Z m 12.7,-14.25 h 7.2 q -0.5,-1.45 -1.03,-3.03 -0.52,-1.57 -1,-3.07 -0.47,-1.5 -0.87,-2.83 -0.4,-1.32 -0.7,-2.22 v 0 q -0.3,0.95 -0.7,2.27 -0.4,1.33 -0.88,2.83 -0.47,1.5 -1,3.05 -0.52,1.55 -1.02,3 z M 87.95,-20.9 87.8,-33.85 h 8.25 V 0 H 89 l -9.65,-14.6 q -0.3,-0.45 -0.83,-1.3 -0.52,-0.85 -1.1,-1.78 -0.57,-0.92 -1.1,-1.8 -0.52,-0.87 -0.87,-1.42 v 0 q 0.05,0.75 0.12,1.83 0.08,1.07 0.15,2.17 0.08,1.1 0.13,2.15 0.05,1.05 0.05,1.75 v 0 L 76.05,0 H 67.8 v -33.85 h 6.75 l 9.75,14.5 q 0.45,0.7 1,1.57 0.55,0.88 1.12,1.78 0.58,0.9 1.08,1.72 0.5,0.83 0.85,1.43 v 0 q -0.05,-0.8 -0.1,-1.85 -0.05,-1.05 -0.13,-2.18 Q 88.05,-18 88,-19.05 87.95,-20.1 87.95,-20.9 Z"
                                   opacity="1"
                                   fill="#89939e"
                                   class="wordmark-text-0"
                                   data-fill-palette-color="primary"
                                   id="path10"
                                   style="display:none" />
                                </svg>
                              </g>
                            </svg>
                          </g>
                        </svg>
                      </g>
                    </svg>
                  </g>
                </svg>
              </g>
            </svg>
          </g>
          <defs
             id="defs14" />
        </svg>
        <rect
           width="223.10913"
           height="54.769299"
           fill="none"
           stroke="none"
           visibility="hidden"
           id="rect15"
           x="0"
           y="0" />
      </g>
    </svg>
  </g>
</svg>
