<?xml version="1.0" encoding="UTF-8"?>
<svg xmlns="http://www.w3.org/2000/svg" xmlns:xlink="http://www.w3.org/1999/xlink" width="128px" height="128px" viewBox="0 0 128 128" version="1.1">
<defs>
<clipPath id="clip1">
  <path d="M 18 3.316406 L 122 3.316406 L 122 90 L 18 90 Z M 18 3.316406 "/>
</clipPath>
<clipPath id="clip2">
  <path d="M 7 40 L 112 40 L 112 125.894531 L 7 125.894531 Z M 7 40 "/>
</clipPath>
<clipPath id="clip3">
  <path d="M 0.574219 10 L 91 10 L 91 111 L 0.574219 111 Z M 0.574219 10 "/>
</clipPath>
<clipPath id="clip4">
  <path d="M 39 20 L 127.964844 20 L 127.964844 121 L 39 121 Z M 39 20 "/>
</clipPath>
</defs>
<g id="surface1">
<g clip-path="url(#clip1)" clip-rule="nonzero">
<path style=" stroke:none;fill-rule:nonzero;fill:rgb(53.72549%,57.647059%,61.960784%);fill-opacity:1;" d="M 18.679688 45.472656 C 16.800781 57.164062 19.417969 68.730469 25.867188 77.210938 C 30.824219 83.730469 37.734375 87.941406 45.328125 89.074219 C 53.335938 90.269531 61.203125 88.492188 67.480469 84.074219 C 69.238281 82.835938 70.808594 81.429688 72.171875 79.898438 C 69.035156 81.226562 65.378906 81.617188 61.414062 81.027344 C 44.882812 78.558594 33.660156 62.75 36.394531 45.78125 C 37.710938 37.597656 42.578125 30.175781 50.097656 24.882812 C 59.644531 18.160156 72.601562 15.421875 85.648438 17.367188 C 96.191406 18.9375 110.574219 25.460938 121.703125 38.015625 C 121.703125 38.015625 89.492188 -15.492188 42.542969 10.386719 C 27.40625 18.730469 20.300781 35.402344 18.679688 45.472656 Z M 18.679688 45.472656 "/>
</g>
<g clip-path="url(#clip2)" clip-rule="nonzero">
<path style=" stroke:none;fill-rule:nonzero;fill:rgb(53.72549%,57.647059%,61.960784%);fill-opacity:1;" d="M 110.429688 85.535156 C 112.773438 73.921875 110.609375 62.269531 104.496094 53.558594 C 99.796875 46.867188 93.058594 42.40625 85.511719 41 C 77.558594 39.515625 69.628906 41.003906 63.183594 45.195312 C 61.375 46.367188 59.753906 47.710938 58.328125 49.195312 C 61.511719 47.980469 65.183594 47.722656 69.125 48.457031 C 85.542969 51.523438 96.140625 67.726562 92.746094 84.585938 C 91.105469 92.714844 85.953125 99.957031 78.230469 104.972656 C 68.429688 111.339844 55.371094 113.609375 42.410156 111.191406 C 31.9375 109.238281 17.820312 102.199219 7.1875 89.25 C 7.1875 89.25 37.28125 143.890625 85.210938 119.730469 C 100.664062 111.945312 108.414062 95.542969 110.429688 85.535156 Z M 110.429688 85.535156 "/>
</g>
<g clip-path="url(#clip3)" clip-rule="nonzero">
<path style=" stroke:none;fill-rule:nonzero;fill:rgb(53.72549%,57.647059%,61.960784%);fill-opacity:1;" d="M 44.386719 109.457031 C 56.535156 111.269531 68.554688 108.75 77.371094 102.542969 C 84.140625 97.773438 88.519531 91.121094 89.699219 83.816406 C 90.9375 76.113281 89.09375 68.542969 84.5 62.503906 C 83.210938 60.808594 81.753906 59.300781 80.160156 57.988281 C 81.539062 61.003906 81.945312 64.523438 81.332031 68.339844 C 78.769531 84.242188 62.339844 95.042969 44.703125 92.414062 C 36.199219 91.144531 28.484375 86.460938 22.984375 79.226562 C 16 70.042969 13.152344 57.574219 15.171875 45.019531 C 16.808594 34.875 23.585938 21.035156 36.632812 10.328125 C 36.632812 10.328125 -18.976562 41.320312 7.917969 86.496094 C 16.589844 101.0625 33.917969 107.894531 44.386719 109.457031 Z M 44.386719 109.457031 "/>
</g>
<g clip-path="url(#clip4)" clip-rule="nonzero">
<path style=" stroke:none;fill-rule:nonzero;fill:rgb(53.72549%,57.647059%,61.960784%);fill-opacity:1;" d="M 121.558594 45.441406 C 113.464844 30.570312 96.417969 23.113281 86.019531 21.171875 C 73.949219 18.921875 61.835938 21.003906 52.785156 26.882812 C 45.832031 31.40625 41.195312 37.890625 39.730469 45.148438 C 38.1875 52.804688 39.738281 60.433594 44.09375 66.636719 C 45.3125 68.375 46.710938 69.9375 48.25 71.304688 C 46.988281 68.242188 46.722656 64.710938 47.484375 60.921875 C 50.667969 45.121094 67.511719 34.925781 85.03125 38.191406 C 93.480469 39.769531 101.003906 44.730469 106.21875 52.15625 C 112.839844 61.589844 115.195312 74.152344 112.683594 86.625 C 110.652344 96.699219 103.335938 110.285156 89.875 120.511719 C 89.875 120.511719 146.664062 91.558594 121.558594 45.441406 Z M 121.558594 45.441406 "/>
</g>
</g>
</svg>
