<svg height="256" viewBox="0 0 1000 1000" width="256" xmlns="http://www.w3.org/2000/svg"><svg height="246" preserveAspectRatio="xMidYMid" transform="matrix(4.0627437 0 0 3.9092309 .22168 23.906125)" version="1.1" viewBox="0 0 223 55" width="1000"><g transform="translate(-.054564 .115397)"><svg height="54.769299" version="1.1" viewBox="0 0 223.10913 54.7693" width="223.10913"><svg height="54.769299" version="1.1" viewBox="0 0 223.10913 54.7693" width="223.10913"><svg height="54.769299" version="1.1" viewBox="0 0 223.10913 54.7693" width="223.10913"><svg height="54.769299" version="1.1" viewBox="0 0 223.10913 54.7693" width="223.10913"><svg height="54.769299" version="1.1" viewBox="0 0 223.10913 54.7693" width="223.10913"><svg version="1.1"/><svg version="1.1"><svg version="1.1"/></svg><svg height="54.769299" version="1.1" viewBox="0 0 223.10913 54.7693" width="223.10913"><svg enable-background="new 0 0 100 100" fill="#89939e" height="54.769299" version="1.0" viewBox="4.667732 4.6859597 90.305033 90.304657" width="54.769527"><path d="m17.504 35.743c-1.334 8.611.522 17.134 5.093 23.382 3.514 4.801 8.413 7.905 13.796 8.739 5.677.88 11.253-.429 15.703-3.685 1.248-.912 2.36-1.946 3.326-3.076-2.222.978-4.814 1.267-7.626.831-11.717-1.816-19.673-13.464-17.735-25.964.934-6.03 4.384-11.497 9.713-15.397 6.768-4.952 15.953-6.97 25.201-5.537 7.474 1.158 17.67 5.964 25.56 15.213 0 0-22.835-39.421-56.115-20.356-10.731 6.147-15.767 18.43-16.916 25.85z"/><path d="m82.544 65.256c1.659-8.555.125-17.141-4.207-23.557-3.331-4.931-8.109-8.217-13.457-9.253-5.639-1.094-11.261.004-15.83 3.091-1.282.863-2.431 1.854-3.44 2.947 2.257-.894 4.859-1.084 7.652-.543 11.64 2.257 19.151 14.196 16.744 26.616-1.161 5.989-4.815 11.324-10.288 15.019-6.949 4.692-16.205 6.364-25.393 4.582-7.423-1.439-17.431-6.626-24.967-16.166 0 0 21.331 40.255 55.307 22.457 10.956-5.737 16.45-17.821 17.879-25.193z"/><path d="m35.726 82.88c8.611 1.334 17.133-.522 23.381-5.094 4.801-3.514 7.905-8.413 8.74-13.796.879-5.676-.429-11.253-3.686-15.702-.912-1.248-1.946-2.36-3.076-3.327.979 2.222 1.267 4.815.831 7.626-1.816 11.717-13.463 19.673-25.965 17.736-6.029-.934-11.497-4.385-15.395-9.713-4.952-6.768-6.971-15.954-5.538-25.202 1.158-7.474 5.964-17.67 15.213-25.559 0 0-39.421 22.835-20.356 56.115 6.147 10.731 18.43 15.766 25.851 16.916z"/><path d="m90.432 35.718c-5.738-10.955-17.822-16.45-25.194-17.879-8.554-1.659-17.141-.125-23.557 4.208-4.931 3.331-8.217 8.108-9.254 13.456-1.094 5.64.004 11.261 3.092 15.83.863 1.282 1.854 2.431 2.946 3.441-.894-2.257-1.084-4.859-.542-7.652 2.257-11.64 14.196-19.151 26.615-16.744 5.99 1.161 11.324 4.816 15.019 10.289 4.693 6.949 6.363 16.204 4.583 25.392-1.44 7.423-6.626 17.431-16.167 24.966 0 0 40.255-21.331 22.459-55.307z"/></svg><svg height="54.769299" transform="translate(67.700228)" version="1.1" viewBox="0 -33.85 96.05 33.85" width="155.40891"/></svg></svg></svg></svg></svg></svg><path d="m0 0h223.10913v54.769299h-223.10913z" fill="none" visibility="hidden"/></g></svg></svg>